# xmcd
#
# Track frame offsets:
#	150
#	16500
#	34465
#	52572
#	68015
#	86180
#	100777
#	116172
#	135717
#	151267
#	168070
#	184420
#	202382
#	220492
#	235935
#	254100
#	268697
#	284090
#	303637
#
# Disc length: 4255 seconds
#
# Revision: 0
# Processed by: cddbd v1.5.2PL0 Copyright (c) Steve Scherf et al.
# Submitted via: audiograbber 1.83.01
#
DISCID=1f109d13
DTITLE=Various Artist - CHM0203
DYEAR=2002
DGENRE=Country
TTITLE0=Tommy Shane Steiner - What If she's An Angel vocal
TTITLE1=Kenny chesney - Young vocal
TTITLE2=Carolyn Dawn Johson - I Don't Want You To Go vocal
TTITLE3=Craig Morgan - God, Family, And Country vocal
TTITLE4=Kevin Denney - That's Just Jessie vocal
TTITLE5=Chely Wright - Jezebel vocal6
TTITLE6=Ty Herndon - Heather's Wall vocal
TTITLE7=Travis Tritt - Modern Day Bonnie And Clyde vocalk  8
TTITLE8=Toby Keith - My List vocal
TTITLE9=Ray Stevens - Osama- Yo Mama vocal0
TTITLE10=TommyShane Steiner - What If She's An Angel
TTITLE11=Kenny Chesney - Young
TTITLE12=Carolyn Dawn Johnson - I Don't Want You To Go
TTITLE13=Craig Morgan - God, Family, And Country
TTITLE14=Kevin Denney - That's Just Jessie
TTITLE15=Chely Wright - Jezebel
TTITLE16=Ty Herndon - Heather's Wall
TTITLE17=Travis Tritt - Modern Day Bonnie And Clyde
TTITLE18=Toby Keith - My List
EXTD=
EXTT0=
EXTT1=
EXTT2=
EXTT3=
EXTT4=
EXTT5=
EXTT6=
EXTT7=
EXTT8=
EXTT9=
EXTT10=
EXTT11=
EXTT12=
EXTT13=
EXTT14=
EXTT15=
EXTT16=
EXTT17=
EXTT18=
PLAYORDER=
